<?xml version="1.0" encoding="UTF-8"?>
<svg width="64px" height="65px" viewBox="0 0 64 65" version="1.1" xmlns="http://www.w3.org/2000/svg" xmlns:xlink="http://www.w3.org/1999/xlink">
    <!-- Generator: Sketch 48.2 (47327) - http://www.bohemiancoding.com/sketch -->
    <title>about/calendar</title>
    <desc>Created with Sketch.</desc>
    <defs>
        <linearGradient x1="0%" y1="0%" x2="101.999998%" y2="100.999999%" id="linearGradient-1">
            <stop stop-color="#1A79D2" offset="0%"></stop>
            <stop stop-color="#6DBED7" offset="100%"></stop>
        </linearGradient>
    </defs>
    <g id="Symbols" stroke="none" stroke-width="1" fill="none" fill-rule="evenodd">
        <g id="about/calendar" fill="url(#linearGradient-1)" fill-rule="nonzero">
            <g id="calendar" transform="translate(0.000000, 6.000000)">
                <path d="M62.933375,3.316625 L1.066625,3.316625 C0.477875,3.316625 0,3.7945 0,4.383375 L0,51.31675 C0,51.906625 0.477875,52.383375 1.066625,52.383375 L62.93325,52.383375 C63.523125,52.383375 63.999875,51.906625 63.999875,51.31675 L63.999875,4.383375 C64,3.7945 63.52325,3.316625 62.933375,3.316625 Z M61.86675,50.25 L2.133375,50.25 L2.133375,5.45 L61.86675,5.45 L61.86675,50.25 Z" id="Shape"></path>
                <rect id="Rectangle-path" x="1.066625" y="11.85" width="61.866625" height="2.133375"></rect>
                <path d="M34.133375,18.25 L29.86675,18.25 C29.278,18.25 28.800125,18.727875 28.800125,19.316625 L28.800125,23.58325 C28.800125,24.172 29.278,24.649875 29.86675,24.649875 L34.133375,24.649875 C34.72325,24.649875 35.2,24.172 35.2,23.58325 L35.2,19.316625 C35.2,18.727875 34.72325,18.25 34.133375,18.25 Z M33.066625,22.516625 L30.93325,22.516625 L30.93325,20.38325 L33.066625,20.38325 L33.066625,22.516625 Z" id="Shape"></path>
                <path d="M44.8,18.25 L40.533375,18.25 C39.9435,18.25 39.46675,18.727875 39.46675,19.316625 L39.46675,23.58325 C39.46675,24.172 39.9435,24.649875 40.533375,24.649875 L44.8,24.649875 C45.389875,24.649875 45.866625,24.172 45.866625,23.58325 L45.866625,19.316625 C45.866625,18.727875 45.389875,18.25 44.8,18.25 Z M43.733375,22.516625 L41.6,22.516625 L41.6,20.38325 L43.733375,20.38325 L43.733375,22.516625 Z" id="Shape"></path>
                <path d="M55.466625,18.25 L51.2,18.25 C50.610125,18.25 50.133375,18.727875 50.133375,19.316625 L50.133375,23.58325 C50.133375,24.172 50.610125,24.649875 51.2,24.649875 L55.466625,24.649875 C56.0565,24.649875 56.53325,24.172 56.53325,23.58325 L56.53325,19.316625 C56.533375,18.727875 56.0565,18.25 55.466625,18.25 Z M54.4,22.516625 L52.266625,22.516625 L52.266625,20.38325 L54.4,20.38325 L54.4,22.516625 Z" id="Shape"></path>
                <path d="M55.466625,28.916625 L51.2,28.916625 C50.610125,28.916625 50.133375,29.393375 50.133375,29.98325 L50.133375,34.25 C50.133375,34.839875 50.610125,35.316625 51.2,35.316625 L55.466625,35.316625 C56.0565,35.316625 56.53325,34.839875 56.53325,34.25 L56.53325,29.983375 C56.533375,29.3935 56.0565,28.916625 55.466625,28.916625 Z M54.4,33.183375 L52.266625,33.183375 L52.266625,31.05 L54.4,31.05 L54.4,33.183375 Z" id="Shape"></path>
                <path d="M12.8,28.916625 L8.533375,28.916625 C7.944625,28.916625 7.46675,29.393375 7.46675,29.98325 L7.46675,34.25 C7.46675,34.839875 7.944625,35.316625 8.533375,35.316625 L12.8,35.316625 C13.38875,35.316625 13.866625,34.839875 13.866625,34.25 L13.866625,29.983375 C13.866625,29.3935 13.38875,28.916625 12.8,28.916625 Z M11.733375,33.183375 L9.6,33.183375 L9.6,31.05 L11.733375,31.05 L11.733375,33.183375 Z" id="Shape"></path>
                <path d="M23.466625,28.916625 L19.2,28.916625 C18.61125,28.916625 18.133375,29.393375 18.133375,29.98325 L18.133375,34.25 C18.133375,34.839875 18.61125,35.316625 19.2,35.316625 L23.466625,35.316625 C24.055375,35.316625 24.53325,34.839875 24.53325,34.25 L24.53325,29.983375 C24.533375,29.3935 24.0555,28.916625 23.466625,28.916625 Z M22.4,33.183375 L20.266625,33.183375 L20.266625,31.05 L22.4,31.05 L22.4,33.183375 Z" id="Shape"></path>
                <path d="M34.133375,39.583375 L29.86675,39.583375 C29.278,39.583375 28.800125,40.060125 28.800125,40.65 L28.800125,44.916625 C28.800125,45.5065 29.278,45.98325 29.86675,45.98325 L34.133375,45.98325 C34.72325,45.98325 35.2,45.5065 35.2,44.916625 L35.2,40.65 C35.2,40.060125 34.72325,39.583375 34.133375,39.583375 Z M33.066625,43.85 L30.93325,43.85 L30.93325,41.716625 L33.066625,41.716625 L33.066625,43.85 Z" id="Shape"></path>
                <path d="M44.8,39.583375 L40.533375,39.583375 C39.9435,39.583375 39.46675,40.060125 39.46675,40.65 L39.46675,44.916625 C39.46675,45.5065 39.9435,45.98325 40.533375,45.98325 L44.8,45.98325 C45.389875,45.98325 45.866625,45.5065 45.866625,44.916625 L45.866625,40.65 C45.866625,40.060125 45.389875,39.583375 44.8,39.583375 Z M43.733375,43.85 L41.6,43.85 L41.6,41.716625 L43.733375,41.716625 L43.733375,43.85 Z" id="Shape"></path>
                <path d="M12.8,39.583375 L8.533375,39.583375 C7.944625,39.583375 7.46675,40.060125 7.46675,40.65 L7.46675,44.916625 C7.46675,45.5065 7.944625,45.98325 8.533375,45.98325 L12.8,45.98325 C13.38875,45.98325 13.866625,45.5065 13.866625,44.916625 L13.866625,40.65 C13.866625,40.060125 13.38875,39.583375 12.8,39.583375 Z M11.733375,43.85 L9.6,43.85 L9.6,41.716625 L11.733375,41.716625 L11.733375,43.85 Z" id="Shape"></path>
                <path d="M23.466625,39.583375 L19.2,39.583375 C18.61125,39.583375 18.133375,40.060125 18.133375,40.65 L18.133375,44.916625 C18.133375,45.5065 18.61125,45.98325 19.2,45.98325 L23.466625,45.98325 C24.055375,45.98325 24.53325,45.5065 24.53325,44.916625 L24.53325,40.65 C24.533375,40.060125 24.0555,39.583375 23.466625,39.583375 Z M22.4,43.85 L20.266625,43.85 L20.266625,41.716625 L22.4,41.716625 L22.4,43.85 Z" id="Shape"></path>
                <path d="M23.466625,18.25 L19.2,18.25 C18.61125,18.25 18.133375,18.727875 18.133375,19.316625 L18.133375,23.58325 C18.133375,24.172 18.61125,24.649875 19.2,24.649875 L23.466625,24.649875 C24.055375,24.649875 24.53325,24.172 24.53325,23.58325 L24.53325,19.316625 C24.533375,18.727875 24.0555,18.25 23.466625,18.25 Z M22.4,22.516625 L20.266625,22.516625 L20.266625,20.38325 L22.4,20.38325 L22.4,22.516625 Z" id="Shape"></path>
                <path d="M34.133375,28.916625 L29.86675,28.916625 C29.278,28.916625 28.800125,29.393375 28.800125,29.98325 L28.800125,34.25 C28.800125,34.839875 29.278,35.316625 29.86675,35.316625 L34.133375,35.316625 C34.72325,35.316625 35.2,34.839875 35.2,34.25 L35.2,29.983375 C35.2,29.3935 34.72325,28.916625 34.133375,28.916625 Z M33.066625,33.183375 L30.93325,33.183375 L30.93325,31.05 L33.066625,31.05 L33.066625,33.183375 Z" id="Shape"></path>
                <rect id="Rectangle-path" x="30.933375" y="0.116625" width="2.133375" height="8.533375"></rect>
                <rect id="Rectangle-path" x="5.333375" y="0.116625" width="2.133375" height="8.533375"></rect>
                <rect id="Rectangle-path" x="22.4" y="0.116625" width="2.133375" height="8.533375"></rect>
                <rect id="Rectangle-path" x="13.866625" y="0.116625" width="2.133375" height="8.533375"></rect>
                <rect id="Rectangle-path" x="39.466625" y="0.116625" width="2.133375" height="8.533375"></rect>
                <rect id="Rectangle-path" x="56.533375" y="0.116625" width="2.133375" height="8.533375"></rect>
                <rect id="Rectangle-path" x="48" y="0.116625" width="2.133375" height="8.533375"></rect>
                <path d="M44.8,28.916625 L40.533375,28.916625 C39.9435,28.916625 39.46675,29.393375 39.46675,29.98325 L39.46675,34.25 C39.46675,34.839875 39.9435,35.316625 40.533375,35.316625 L44.8,35.316625 C45.389875,35.316625 45.866625,34.839875 45.866625,34.25 L45.866625,29.983375 C45.866625,29.3935 45.389875,28.916625 44.8,28.916625 Z M43.733375,33.183375 L41.6,33.183375 L41.6,31.05 L43.733375,31.05 L43.733375,33.183375 Z" id="Shape"></path>
            </g>
        </g>
    </g>
</svg>