<?xml version="1.0" encoding="UTF-8"?>
<svg width="64px" height="64px" viewBox="0 0 64 64" version="1.1" xmlns="http://www.w3.org/2000/svg" xmlns:xlink="http://www.w3.org/1999/xlink">
    <!-- Generator: Sketch 48.2 (47327) - http://www.bohemiancoding.com/sketch -->
    <title>about/landmark</title>
    <desc>Created with Sketch.</desc>
    <defs>
        <linearGradient x1="0%" y1="0%" x2="101.999998%" y2="100.999999%" id="linearGradient-1">
            <stop stop-color="#1A79D2" offset="0%"></stop>
            <stop stop-color="#6DBED7" offset="100%"></stop>
        </linearGradient>
    </defs>
    <g id="Symbols" stroke="none" stroke-width="1" fill="none" fill-rule="evenodd">
        <g id="about/landmark" fill="url(#linearGradient-1)" fill-rule="nonzero">
            <path d="M53.2412269,62.5002529 L44.7078234,43.3002904 C44.5360729,42.9141662 44.1553216,42.6666667 43.7329452,42.6666667 L20.266117,42.6666667 C19.8447406,42.6666667 19.4628644,42.9141662 19.2922388,43.3002904 L10.7588354,62.5002529 C10.6115849,62.8298773 10.642585,63.2117515 10.8388356,63.5146259 C11.0350863,63.8175004 11.3722124,64 11.7327136,64 L21.3327456,64 C21.762622,64 22.1519983,63.7418755 22.3172489,63.3440013 L25.6036348,55.4698917 C26.6798884,52.8757717 29.1887718,51.200025 31.9972811,51.200025 C32.0005311,51.1989 32.0005311,51.1989 32.0026561,51.200025 C34.8101655,51.200025 37.3189238,52.8757717 38.3963024,55.4720167 L41.6816884,63.3440013 C41.8470639,63.7418755 42.2363152,64 42.6661916,64 L52.2662236,64 C52.6278498,64 52.9648509,63.8176254 53.1611016,63.5146259 C53.3574773,63.2117515 53.3883524,62.8310023 53.2412269,62.5002529 Z M43.376569,61.8666292 L40.365309,54.6527683 C38.9573043,51.2596499 35.6751684,49.0666542 32.0015311,49.0666542 C31.9994061,49.0666542 31.9982811,49.0666542 31.9961561,49.0666542 C28.3236439,49.0666542 25.0403829,51.2586499 23.6335033,54.6506433 L20.6222432,61.8666292 L13.3742191,61.8666292 L20.9593693,44.8000375 L43.0405679,44.8000375 L50.6245932,61.8666292 L43.376569,61.8666292 Z" id="Shape" transform="translate(32.000000, 53.333333) scale(-1, 1) translate(-32.000000, -53.333333) "></path>
            <path d="M43.6401341,38.0952381 L20.3597419,38.0952381 C19.7756673,38.0952381 19.3015873,38.5492928 19.3015873,39.1110873 L19.3015873,43.1746032 L21.4180204,43.1746032 L21.4180204,40.1269365 L42.5819796,40.1269365 L42.5819796,43.1746032 L44.6984127,43.1746032 L44.6984127,39.1110873 C44.6982887,38.5494119 44.2252007,38.0952381 43.6401341,38.0952381 Z" id="Shape" transform="translate(32.000000, 40.634921) scale(-1, 1) translate(-32.000000, -40.634921) "></path>
            <path d="M38.3855767,23.1374187 C38.2614108,22.6732298 37.8364875,22.3492063 37.3517387,22.3492063 L26.6492646,22.3492063 C26.1643905,22.3492063 25.7395926,22.6732298 25.6142979,23.1374187 L21.3333333,39.0709587 L23.402138,39.6190476 L27.471268,24.4737199 L36.5288574,24.4737199 L40.5989908,39.6190476 L42.6666667,39.0709587 L38.3855767,23.1374187 Z" id="Shape" transform="translate(32.000000, 30.984127) scale(-1, 1) translate(-32.000000, -30.984127) "></path>
            <path d="M32.7910425,28.1986161 C32.6524747,27.7417027 32.2270563,27.4285714 31.7460317,27.4285714 C31.2650072,27.4285714 30.8395888,27.7418293 30.701021,28.1986161 L27.4285714,38.9991135 L29.5185929,39.6190476 L31.7460317,32.267171 L33.9734706,39.6190476 L36.0634921,38.9991135 L32.7910425,28.1986161 Z" id="Shape" transform="translate(31.746032, 33.523810) scale(-1, 1) translate(-31.746032, -33.523810) "></path>
            <path d="M37.5450045,18.2857143 L26.962932,18.2857143 C26.3788489,18.2857143 25.9047619,18.7787696 25.9047619,19.3862219 L25.9047619,23.7883813 C25.9047619,24.3958336 26.3788489,24.8888889 26.962932,24.8888889 L37.5450045,24.8888889 C38.1302037,24.8888889 38.6031746,24.3958336 38.6031746,23.7883813 L38.6031746,19.3862219 C38.6031746,18.7787696 38.1300797,18.2857143 37.5450045,18.2857143 Z M36.4867105,22.6878737 L28.020978,22.6878737 L28.020978,20.4867295 L36.4867105,20.4867295 L36.4867105,22.6878737 Z" id="Shape" transform="translate(32.253968, 21.587302) scale(-1, 1) translate(-32.253968, -21.587302) "></path>
            <path d="M35.7716001,7.1460104 C35.5298992,5.38779776 34.0180467,4.06349206 32.2581031,4.06349206 C32.255973,4.06349206 32.253843,4.06349206 32.2517129,4.06349206 C30.4907669,4.06349206 28.9789144,5.38779776 28.7383412,7.12872478 L26.9206349,18.9721511 L29.0344217,19.3015873 L30.854258,7.44201089 C30.9504873,6.74326804 31.5514192,6.21675055 32.253843,6.21675055 C32.253843,6.21675055 32.253843,6.21675055 32.2549706,6.21675055 L32.2560983,6.21675055 C32.956392,6.21675055 33.5584516,6.74326804 33.656811,7.45816096 L35.4745172,19.3015873 L37.5873016,18.9721511 L35.7716001,7.1460104 Z" id="Shape" transform="translate(32.253968, 11.682540) scale(-1, 1) translate(-32.253968, -11.682540) "></path>
            <rect id="Rectangle-path" transform="translate(32.000000, 2.539683) scale(-1, 1) translate(-32.000000, -2.539683) " x="30.984127" y="0" width="2.03174603" height="5.07936508"></rect>
            <rect id="Rectangle-path" transform="translate(32.507937, 9.650794) scale(-1, 1) translate(-32.507937, -9.650794) " x="29.968254" y="8.63492063" width="5.07936508" height="2.03174603"></rect>
            <rect id="Rectangle-path" transform="translate(51.809524, 62.984127) scale(-1, 1) translate(-51.809524, -62.984127) " x="39.6190476" y="61.968254" width="24.3809524" height="2.03174603"></rect>
            <rect id="Rectangle-path" transform="translate(17.015873, 62.984127) scale(-1, 1) translate(-17.015873, -62.984127) " x="9.65079365" y="61.968254" width="14.7301587" height="2.03174603"></rect>
            <path d="M62.9278501,12.6984127 L45.7706882,12.6984127 C45.1788193,12.6984127 44.6984127,13.1819779 44.6984127,13.7777383 L44.6984127,28.8889284 C44.6984127,29.4846888 45.1788193,29.968254 45.7706882,29.968254 L62.9277245,29.968254 C63.5195934,29.968254 64,29.4846888 64,28.8889284 L64,13.7777383 C64.0001256,13.1819779 63.5197191,12.6984127 62.9278501,12.6984127 Z M61.8555746,27.8096029 L46.8430894,27.8096029 L46.8430894,14.8571903 L61.8555746,14.8571903 L61.8555746,27.8096029 Z" id="Shape" transform="translate(54.349206, 21.333333) scale(-1, 1) translate(-54.349206, -21.333333) "></path>
            <path d="M63.685681,13.359507 L59.396566,8.95734757 C59.1960144,8.75047845 58.9225806,8.63492063 58.6384659,8.63492063 L50.0601101,8.63492063 C49.7759954,8.63492063 49.5025616,8.75047845 49.30201,8.95734757 L45.0127694,13.359507 C44.7061617,13.6743246 44.613928,14.1475184 44.7800491,14.5590641 C44.9462958,14.9695781 45.3375976,15.2380952 45.7708695,15.2380952 L62.9274552,15.2380952 C63.3607271,15.2380952 63.7520289,14.9695781 63.9182756,14.5590641 C64.0845223,14.1475184 63.9922887,13.6743246 63.685681,13.359507 Z M48.3594427,13.03708 L50.504063,10.8359358 L58.194513,10.8359358 L60.3391333,13.03708 L48.3594427,13.03708 Z" id="Shape" transform="translate(54.349206, 11.936508) scale(-1, 1) translate(-54.349206, -11.936508) "></path>
            <path d="M54.6031746,17.2698413 C52.222013,17.2698413 50.2857143,19.2062664 50.2857143,21.5873016 C50.2857143,23.9683367 52.2221394,25.9047619 54.6031746,25.9047619 C56.9842098,25.9047619 58.9206349,23.9683367 58.9206349,21.5873016 C58.9206349,19.2062664 56.9842098,17.2698413 54.6031746,17.2698413 Z M54.6031746,23.746095 C53.412657,23.746095 52.4443812,22.7779457 52.4443812,21.5873016 C52.4443812,20.396784 53.4125305,19.4285082 54.6031746,19.4285082 C55.7936922,19.4285082 56.761968,20.3966575 56.761968,21.5873016 C56.761968,22.7779457 55.7936922,23.746095 54.6031746,23.746095 Z" id="Shape" transform="translate(54.603175, 21.587302) scale(-1, 1) translate(-54.603175, -21.587302) "></path>
            <path d="M60.9160205,27.4285714 L48.2902054,27.4285714 C47.7094672,27.4285714 47.2380952,27.9037698 47.2380952,28.4892222 L47.2380952,63.4920635 L49.3424389,63.4920635 L49.3424389,29.5498729 L59.8639103,29.5498729 L59.8639103,52.885059 L61.968254,52.885059 L61.968254,28.4892222 C61.9681307,27.9037698 61.4967587,27.4285714 60.9160205,27.4285714 Z" id="Shape" transform="translate(54.603175, 45.460317) scale(-1, 1) translate(-54.603175, -45.460317) "></path>
            <path d="M58.8697538,4.06349206 L50.3364704,4.06349206 C49.7477181,4.06349206 49.2698413,4.55654733 49.2698413,5.16399967 L49.2698413,9.56615906 C49.2698413,10.1736114 49.7477181,10.6666667 50.3364704,10.6666667 L58.8698788,10.6666667 C59.4586311,10.6666667 59.9365079,10.1736114 59.9365079,9.56615906 L59.9365079,5.16412864 C59.9365079,4.55654733 59.4586311,4.06349206 58.8697538,4.06349206 Z M57.8031246,8.46578043 L51.4030996,8.46578043 L51.4030996,6.26463625 L57.8031246,6.26463625 L57.8031246,8.46578043 Z" id="Shape" transform="translate(54.603175, 7.365079) scale(-1, 1) translate(-54.603175, -7.365079) "></path>
            <path d="M59.6237308,4.72469639 L55.3573,0.322665967 C54.940194,-0.107555322 54.2660997,-0.107555322 53.8491186,0.322665967 L49.5825628,4.72469639 C49.2774517,5.03949561 49.1858309,5.51266165 49.3510734,5.92418327 C49.5164408,6.33467319 49.9056731,6.6031746 50.3366535,6.6031746 L58.8696401,6.6031746 C59.3004955,6.6031746 59.6898528,6.33467319 59.8552203,5.92418327 C60.0205878,5.51266165 59.9288419,5.03936664 59.6237308,4.72469639 Z M52.9115363,4.40215939 L54.6032093,2.65677122 L56.2948823,4.40215939 L52.9115363,4.40215939 Z" id="Shape" transform="translate(54.603175, 3.301587) scale(-1, 1) translate(-54.603175, -3.301587) "></path>
            <rect id="Rectangle-path" transform="translate(56.380952, 35.301587) scale(-1, 1) translate(-56.380952, -35.301587) " x="55.3650794" y="32" width="2.03174603" height="6.6031746"></rect>
            <rect id="Rectangle-path" transform="translate(52.317460, 35.301587) scale(-1, 1) translate(-52.317460, -35.301587) " x="51.3015873" y="32" width="2.03174603" height="6.6031746"></rect>
            <rect id="Rectangle-path" transform="translate(56.380952, 60.698413) scale(-1, 1) translate(-56.380952, -60.698413) " x="55.3650794" y="57.3968254" width="2.03174603" height="6.6031746"></rect>
            <rect id="Rectangle-path" transform="translate(52.317460, 60.698413) scale(-1, 1) translate(-52.317460, -60.698413) " x="51.3015873" y="57.3968254" width="2.03174603" height="6.6031746"></rect>
            <rect id="Rectangle-path" transform="translate(56.380952, 52.063492) scale(-1, 1) translate(-56.380952, -52.063492) " x="55.3650794" y="48.7619048" width="2.03174603" height="6.6031746"></rect>
            <rect id="Rectangle-path" transform="translate(52.317460, 52.063492) scale(-1, 1) translate(-52.317460, -52.063492) " x="51.3015873" y="48.7619048" width="2.03174603" height="6.6031746"></rect>
            <rect id="Rectangle-path" transform="translate(56.380952, 43.936508) scale(-1, 1) translate(-56.380952, -43.936508) " x="55.3650794" y="40.6349206" width="2.03174603" height="6.6031746"></rect>
            <rect id="Rectangle-path" transform="translate(52.317460, 43.936508) scale(-1, 1) translate(-52.317460, -43.936508) " x="51.3015873" y="40.6349206" width="2.03174603" height="6.6031746"></rect>
            <path d="M20.2609392,6.6031746 L3.10401455,6.6031746 C2.51101852,6.6031746 2.03174603,7.07996599 2.03174603,7.66738095 L2.03174603,43.8517687 L4.17640873,43.8517687 L4.17640873,8.7315873 L19.1887963,8.7315873 L19.1887963,49.1730499 L6.32107143,49.1730499 L6.32107143,51.3015873 L20.2610648,51.3015873 C20.8540608,51.3015873 21.3333333,50.8259184 21.3333333,50.237381 L21.3333333,7.66738095 C21.3332077,7.07996599 20.8539352,6.6031746 20.2609392,6.6031746 Z" id="Shape" transform="translate(11.682540, 28.952381) scale(-1, 1) translate(-11.682540, -28.952381) "></path>
            <rect id="Rectangle-path" transform="translate(11.682540, 15.746032) scale(-1, 1) translate(-11.682540, -15.746032) " x="1.01587302" y="14.7301587" width="21.3333333" height="2.03174603"></rect>
            <path d="M11.6825397,10.6666667 C11.120732,10.6666667 10.6666667,11.1597219 10.6666667,11.7671743 L10.6666667,16.1693337 C10.6666667,16.776786 11.120732,17.2698413 11.6825397,17.2698413 C12.2443473,17.2698413 12.6984127,16.776786 12.6984127,16.1693337 L12.6984127,11.7673032 C12.6985317,11.1597219 12.2443473,10.6666667 11.6825397,10.6666667 Z" id="Shape" transform="translate(11.682540, 13.968254) scale(-1, 1) translate(-11.682540, -13.968254) "></path>
            <path d="M16.2539683,10.6666667 C15.6921606,10.6666667 15.2380952,11.1597219 15.2380952,11.7671743 L15.2380952,16.1693337 C15.2380952,16.776786 15.6921606,17.2698413 16.2539683,17.2698413 C16.8157759,17.2698413 17.2698413,16.776786 17.2698413,16.1693337 L17.2698413,11.7673032 C17.2698413,11.1597219 16.8157759,10.6666667 16.2539683,10.6666667 Z" id="Shape" transform="translate(16.253968, 13.968254) scale(-1, 1) translate(-16.253968, -13.968254) "></path>
            <path d="M7.61904762,10.6666667 C7.05723996,10.6666667 6.6031746,11.1597219 6.6031746,11.7671743 L6.6031746,16.1693337 C6.6031746,16.776786 7.05723996,17.2698413 7.61904762,17.2698413 C8.18085528,17.2698413 8.63492063,16.776786 8.63492063,16.1693337 L8.63492063,11.7673032 C8.63492063,11.1597219 8.18085528,10.6666667 7.61904762,10.6666667 Z" id="Shape" transform="translate(7.619048, 13.968254) scale(-1, 1) translate(-7.619048, -13.968254) "></path>
            <path d="M18.2494683,0 L5.62354754,0 C5.0416948,0 4.57142857,0.48356871 4.57142857,1.07933346 L4.57142857,7.55558718 C4.57142857,8.15135192 5.0416948,8.63492063 5.62354754,8.63492063 L18.2494683,8.63492063 C18.831321,8.63492063 19.3015873,8.15135192 19.3015873,7.55558718 L19.3015873,1.07933346 C19.3017106,0.48356871 18.831321,0 18.2494683,0 Z M17.1973493,6.47625372 L6.6757898,6.47625372 L6.6757898,2.1587934 L17.1973493,2.1587934 L17.1973493,6.47625372 Z" id="Shape" transform="translate(11.936508, 4.317460) scale(-1, 1) translate(-11.936508, -4.317460) "></path>
            <path d="M14.2222222,4.06349206 C13.6604146,4.06349206 13.2063492,4.51861556 13.2063492,5.07933532 L13.2063492,7.11114087 C13.2063492,7.67186063 13.6604146,8.12698413 14.2222222,8.12698413 C14.7840299,8.12698413 15.2380952,7.67186063 15.2380952,7.11114087 L15.2380952,5.07945437 C15.2380952,4.51861556 14.7840299,4.06349206 14.2222222,4.06349206 Z" id="Shape" transform="translate(14.222222, 6.095238) scale(-1, 1) translate(-14.222222, -6.095238) "></path>
            <path d="M9.65079365,4.06349206 C9.08898599,4.06349206 8.63492063,4.51862889 8.63492063,5.07936508 L8.63492063,6.0952381 C8.63492063,6.65597428 9.08898599,7.11111111 9.65079365,7.11111111 C10.2126013,7.11111111 10.6666667,6.65597428 10.6666667,6.0952381 L10.6666667,5.07936508 C10.6666667,4.51862889 10.2126013,4.06349206 9.65079365,4.06349206 Z" id="Shape" transform="translate(9.650794, 5.587302) scale(-1, 1) translate(-9.650794, -5.587302) "></path>
            <path d="M16.1903971,48.7619048 L-3.55271368e-15,48.7619048 L-3.55271368e-15,50.8662484 L15.1110795,50.8662484 L15.1110795,63.4920635 L17.2698413,63.4920635 L17.2698413,49.8141382 C17.2697148,49.2322904 16.7872915,48.7619048 16.1903971,48.7619048 Z" id="Shape" transform="translate(8.634921, 56.126984) scale(-1, 1) translate(-8.634921, -56.126984) "></path>
            <path d="M11.9365079,53.3333333 C10.11625,53.3333333 8.63492063,54.7766799 8.63492063,56.5502646 L8.63492063,58.1908995 L10.8360218,58.1908995 L10.8360218,56.5502646 C10.8360218,55.9583995 11.3290675,55.477996 11.9365079,55.477996 C12.5439484,55.477996 13.036994,55.9583995 13.036994,56.5502646 L13.036994,62.984127 L15.2380952,62.984127 L15.2380952,56.5502646 C15.2380952,54.7766799 13.7567659,53.3333333 11.9365079,53.3333333 Z" id="Shape" transform="translate(11.936508, 58.158730) scale(-1, 1) translate(-11.936508, -58.158730) "></path>
            <rect id="Rectangle-path" transform="translate(6.349206, 62.984127) scale(-1, 1) translate(-6.349206, -62.984127) " x="1.01587302" y="61.968254" width="10.6666667" height="2.03174603"></rect>
            <path d="M3.3015873,53.3333333 C1.48132937,53.3333333 0,54.7766799 0,56.5502646 L0,62.984127 L2.20110119,62.984127 L2.20110119,56.5502646 C2.20110119,55.9583995 2.69414683,55.477996 3.3015873,55.477996 C3.90902778,55.477996 4.40207341,55.9583995 4.40207341,56.5502646 L4.40207341,62.984127 L6.6031746,62.984127 L6.6031746,56.5502646 C6.6031746,54.7766799 5.12184524,53.3333333 3.3015873,53.3333333 Z" id="Shape" transform="translate(3.301587, 58.158730) scale(-1, 1) translate(-3.301587, -58.158730) "></path>
            <rect id="Rectangle-path" transform="translate(11.682540, 24.380952) scale(-1, 1) translate(-11.682540, -24.380952) " x="1.01587302" y="23.3650794" width="21.3333333" height="2.03174603"></rect>
            <path d="M11.6825397,19.3015873 C11.120732,19.3015873 10.6666667,19.7946426 10.6666667,20.4020949 L10.6666667,24.8042543 C10.6666667,25.4117066 11.120732,25.9047619 11.6825397,25.9047619 C12.2443473,25.9047619 12.6984127,25.4117066 12.6984127,24.8042543 L12.6984127,20.4020949 C12.6985317,19.7946426 12.2443473,19.3015873 11.6825397,19.3015873 Z" id="Shape" transform="translate(11.682540, 22.603175) scale(-1, 1) translate(-11.682540, -22.603175) "></path>
            <path d="M16.2539683,19.3015873 C15.6921606,19.3015873 15.2380952,19.7946426 15.2380952,20.4020949 L15.2380952,24.8042543 C15.2380952,25.4117066 15.6921606,25.9047619 16.2539683,25.9047619 C16.8157759,25.9047619 17.2698413,25.4117066 17.2698413,24.8042543 L17.2698413,20.4020949 C17.2698413,19.7946426 16.8157759,19.3015873 16.2539683,19.3015873 Z" id="Shape" transform="translate(16.253968, 22.603175) scale(-1, 1) translate(-16.253968, -22.603175) "></path>
            <path d="M7.61904762,19.3015873 C7.05723996,19.3015873 6.6031746,19.7946426 6.6031746,20.4020949 L6.6031746,24.8042543 C6.6031746,25.4117066 7.05723996,25.9047619 7.61904762,25.9047619 C8.18085528,25.9047619 8.63492063,25.4117066 8.63492063,24.8042543 L8.63492063,20.4020949 C8.63492063,19.7946426 8.18085528,19.3015873 7.61904762,19.3015873 Z" id="Shape" transform="translate(7.619048, 22.603175) scale(-1, 1) translate(-7.619048, -22.603175) "></path>
            <rect id="Rectangle-path" transform="translate(11.682540, 33.015873) scale(-1, 1) translate(-11.682540, -33.015873) " x="1.01587302" y="32" width="21.3333333" height="2.03174603"></rect>
            <path d="M11.6825397,27.4285714 C11.120732,27.4285714 10.6666667,27.9216267 10.6666667,28.529079 L10.6666667,32.9312384 C10.6666667,33.5398515 11.120732,34.031746 11.6825397,34.031746 C12.2443473,34.031746 12.6984127,33.5398515 12.6984127,32.9312384 L12.6984127,28.529079 C12.6985317,27.9216267 12.2443473,27.4285714 11.6825397,27.4285714 Z" id="Shape" transform="translate(11.682540, 30.730159) scale(-1, 1) translate(-11.682540, -30.730159) "></path>
            <path d="M16.2539683,27.4285714 C15.6921606,27.4285714 15.2380952,27.9216267 15.2380952,28.529079 L15.2380952,32.9312384 C15.2380952,33.5398515 15.6921606,34.031746 16.2539683,34.031746 C16.8157759,34.031746 17.2698413,33.5398515 17.2698413,32.9312384 L17.2698413,28.529079 C17.2698413,27.9216267 16.8157759,27.4285714 16.2539683,27.4285714 Z" id="Shape" transform="translate(16.253968, 30.730159) scale(-1, 1) translate(-16.253968, -30.730159) "></path>
            <path d="M7.61904762,27.4285714 C7.05723996,27.4285714 6.6031746,27.9216267 6.6031746,28.529079 L6.6031746,32.9312384 C6.6031746,33.5398515 7.05723996,34.031746 7.61904762,34.031746 C8.18085528,34.031746 8.63492063,33.5398515 8.63492063,32.9312384 L8.63492063,28.529079 C8.63492063,27.9216267 8.18085528,27.4285714 7.61904762,27.4285714 Z" id="Shape" transform="translate(7.619048, 30.730159) scale(-1, 1) translate(-7.619048, -30.730159) "></path>
            <rect id="Rectangle-path" transform="translate(10.666667, 41.650794) scale(-1, 1) translate(-10.666667, -41.650794) " x="1.01587302" y="40.6349206" width="19.3015873" height="2.03174603"></rect>
            <path d="M11.6825397,36.0634921 C11.120732,36.0634921 10.6666667,36.5553866 10.6666667,37.1639997 L10.6666667,41.5661591 C10.6666667,42.1747721 11.120732,42.6666667 11.6825397,42.6666667 C12.2443473,42.6666667 12.6984127,42.1747721 12.6984127,41.5661591 L12.6984127,37.1639997 C12.6985317,36.5555156 12.2443473,36.0634921 11.6825397,36.0634921 Z" id="Shape" transform="translate(11.682540, 39.365079) scale(-1, 1) translate(-11.682540, -39.365079) "></path>
            <path d="M16.2539683,36.0634921 C15.6921606,36.0634921 15.2380952,36.5553866 15.2380952,37.1639997 L15.2380952,41.5661591 C15.2380952,42.1747721 15.6921606,42.6666667 16.2539683,42.6666667 C16.8157759,42.6666667 17.2698413,42.1747721 17.2698413,41.5661591 L17.2698413,37.1639997 C17.2698413,36.5555156 16.8157759,36.0634921 16.2539683,36.0634921 Z" id="Shape" transform="translate(16.253968, 39.365079) scale(-1, 1) translate(-16.253968, -39.365079) "></path>
            <path d="M7.61904762,36.0634921 C7.05723996,36.0634921 6.6031746,36.5553866 6.6031746,37.1639997 L6.6031746,41.5661591 C6.6031746,42.1747721 7.05723996,42.6666667 7.61904762,42.6666667 C8.18085528,42.6666667 8.63492063,42.1747721 8.63492063,41.5661591 L8.63492063,37.1639997 C8.63492063,36.5555156 8.18085528,36.0634921 7.61904762,36.0634921 Z" id="Shape" transform="translate(7.619048, 39.365079) scale(-1, 1) translate(-7.619048, -39.365079) "></path>
            <rect id="Rectangle-path" transform="translate(9.650794, 49.777778) scale(-1, 1) translate(-9.650794, -49.777778) " x="1.01587302" y="48.7619048" width="17.2698413" height="2.03174603"></rect>
            <path d="M11.6825397,44.6984127 C11.120732,44.6984127 10.6666667,45.1903072 10.6666667,45.7989203 L10.6666667,50.2010797 C10.6666667,50.8096928 11.120732,51.3015873 11.6825397,51.3015873 C12.2443473,51.3015873 12.6984127,50.8096928 12.6984127,50.2010797 L12.6984127,45.7989203 C12.6985317,45.1904362 12.2443473,44.6984127 11.6825397,44.6984127 Z" id="Shape" transform="translate(11.682540, 48.000000) scale(-1, 1) translate(-11.682540, -48.000000) "></path>
            <path d="M16.2539683,44.6984127 C15.6921606,44.6984127 15.2380952,45.1903072 15.2380952,45.7989203 L15.2380952,50.2010797 C15.2380952,50.8096928 15.6921606,51.3015873 16.2539683,51.3015873 C16.8157759,51.3015873 17.2698413,50.8096928 17.2698413,50.2010797 L17.2698413,45.7989203 C17.2698413,45.1904362 16.8157759,44.6984127 16.2539683,44.6984127 Z" id="Shape" transform="translate(16.253968, 48.000000) scale(-1, 1) translate(-16.253968, -48.000000) "></path>
            <path d="M7.61904762,44.6984127 C7.05723996,44.6984127 6.6031746,45.1903072 6.6031746,45.7989203 L6.6031746,50.2010797 C6.6031746,50.8096928 7.05723996,51.3015873 7.61904762,51.3015873 C8.18085528,51.3015873 8.63492063,50.8096928 8.63492063,50.2010797 L8.63492063,45.7989203 C8.63492063,45.1904362 8.18085528,44.6984127 7.61904762,44.6984127 Z" id="Shape" transform="translate(7.619048, 48.000000) scale(-1, 1) translate(-7.619048, -48.000000) "></path>
        </g>
    </g>
</svg>