<?xml version="1.0" encoding="UTF-8"?>
<svg width="64px" height="65px" viewBox="0 0 64 65" version="1.1" xmlns="http://www.w3.org/2000/svg" xmlns:xlink="http://www.w3.org/1999/xlink">
    <!-- Generator: Sketch 48.2 (47327) - http://www.bohemiancoding.com/sketch -->
    <title>about/suitcase</title>
    <desc>Created with Sketch.</desc>
    <defs>
        <linearGradient x1="0%" y1="0%" x2="101.999998%" y2="100.999999%" id="linearGradient-1">
            <stop stop-color="#1A79D2" offset="0%"></stop>
            <stop stop-color="#6DBED7" offset="100%"></stop>
        </linearGradient>
    </defs>
    <g id="Symbols" stroke="none" stroke-width="1" fill="none" fill-rule="evenodd">
        <g id="about/suitcase" fill="url(#linearGradient-1)" fill-rule="nonzero">
            <g id="suitcase" transform="translate(0.000000, 1.000000)">
                <path d="M28.7438596,13.866625 L5.32297856,13.866625 C2.38783626,13.866625 0,16.25925 0,19.2 L0,53.333375 C0,56.274125 2.38783626,58.66675 5.32297856,58.66675 L19.1625731,58.66675 L19.1625731,56.533375 L5.32297856,56.533375 C3.56216764,56.533375 2.12921637,55.097625 2.12921637,53.333375 L2.12921637,19.2 C2.12921637,17.43575 3.56216764,16 5.32297856,16 L28.7438596,16 C30.5046706,16 31.9376218,17.43575 31.9376218,19.2 L31.9376218,20.266625 L34.0668382,20.266625 L34.0668382,19.2 C34.0668382,16.25925 31.6788772,13.866625 28.7438596,13.866625 Z" id="Shape"></path>
                <path d="M23.4208811,0 L10.6458324,0 C8.88502144,0 7.45207018,1.43575 7.45207018,3.2 C7.45207018,4.96425 8.88502144,6.4 10.6458324,6.4 L23.4208811,6.4 C25.181692,6.4 26.6146433,4.96425 26.6146433,3.2 C26.6146433,1.43575 25.181692,0 23.4208811,0 Z M23.4208811,4.266625 L10.6458324,4.266625 C10.0592281,4.266625 9.58128655,3.78775 9.58128655,3.2 C9.58128655,2.61225 10.0592281,2.133375 10.6458324,2.133375 L23.4208811,2.133375 C24.0074854,2.133375 24.4854269,2.61225 24.4854269,3.2 C24.4855517,3.78775 24.0074854,4.266625 23.4208811,4.266625 Z" id="Shape"></path>
                <rect id="Rectangle-path" x="11.7105029" y="5.333375" width="2.12921637" height="9.6"></rect>
                <rect id="Rectangle-path" x="20.2271189" y="5.333375" width="2.12921637" height="9.6"></rect>
                <rect id="Rectangle-path" x="6.38752437" y="32" width="2.12921637" height="19.2"></rect>
                <rect id="Rectangle-path" x="19.1625731" y="20.266625" width="2.12921637" height="8.533375"></rect>
                <path d="M4.79064327,56.533375 C2.73603119,56.533375 1.06454581,58.208 1.06454581,60.26675 C1.06454581,62.3255 2.73603119,64 4.79064327,64 C6.84525536,64 8.51674074,62.325375 8.51674074,60.266625 C8.51674074,58.207875 6.84525536,56.533375 4.79064327,56.533375 Z M4.79064327,61.866625 C3.91023782,61.866625 3.19376218,61.14875 3.19376218,60.266625 C3.19376218,59.3845 3.91023782,58.666625 4.79064327,58.666625 C5.67104873,58.666625 6.38752437,59.3845 6.38752437,60.266625 C6.38752437,61.14875 5.67104873,61.866625 4.79064327,61.866625 Z" id="Shape"></path>
                <rect id="Rectangle-path" x="12.7750487" y="20.266625" width="2.12921637" height="30.933375"></rect>
                <path d="M11.6349006,29.469875 L9.50568421,24.1365 C9.39926706,23.869875 9.18955166,23.657625 8.92444444,23.54775 C8.65833918,23.43675 8.36017154,23.437875 8.09730994,23.553125 L0.645239766,26.753125 C0.253380117,26.9205 0,27.306625 0,27.733375 L0,34.133375 C0,34.495 0.182019493,34.831 0.48442885,35.02825 C0.66008577,35.141375 0.862315789,35.2 1.06467057,35.2 C1.21163353,35.2 1.35847173,35.170125 1.49794932,35.10725 L11.0792359,30.840625 C11.6018402,30.608 11.8467368,30.00325 11.6349006,29.469875 Z M2.12921637,32.49175 L2.12921637,28.43625 L7.93338012,25.9445 L9.27688109,29.30875 L2.12921637,32.49175 Z" id="Shape"></path>
                <rect id="Rectangle-path" x="6.38752437" y="20.266625" width="2.12921637" height="5.333375"></rect>
                <rect id="Rectangle-path" x="25.5500975" y="20.266625" width="2.12921637" height="8.533375"></rect>
                <path d="M29.2761949,56.533375 C27.2215828,56.533375 25.5500975,58.208 25.5500975,60.26675 C25.5500975,62.3255 27.2214581,64 29.2761949,64 C31.330807,64 33.0022924,62.325375 33.0022924,60.266625 C33.0022924,58.207875 31.330807,56.533375 29.2761949,56.533375 Z M29.2761949,61.866625 C28.3957895,61.866625 27.6793138,61.14875 27.6793138,60.266625 C27.6793138,59.3845 28.3957895,58.666625 29.2761949,58.666625 C30.1566004,58.666625 30.873076,59.3845 30.873076,60.266625 C30.873076,61.14875 30.1566004,61.866625 29.2761949,61.866625 Z" id="Shape"></path>
                <path d="M58.5522651,26.666625 L21.2917895,26.666625 C18.3566472,26.666625 15.9688109,29.05925 15.9688109,32 L15.9688109,53.333375 C15.9688109,56.274125 18.3566472,58.66675 21.2917895,58.66675 L58.5523899,58.66675 C61.4874074,58.66675 63.8753684,56.27425 63.8753684,53.333375 L63.8753684,32 C63.8752437,29.05925 61.4874074,26.666625 58.5522651,26.666625 Z M61.7460273,53.333375 C61.7460273,55.097625 60.313076,56.533375 58.5522651,56.533375 L21.2917895,56.533375 C19.5309786,56.533375 18.0980273,55.097625 18.0980273,53.333375 L18.0980273,32 C18.0980273,30.23575 19.5309786,28.8 21.2917895,28.8 L58.5523899,28.8 C60.3132008,28.8 61.746152,30.23575 61.746152,32 L61.746152,53.333375 L61.7460273,53.333375 Z" id="Shape"></path>
                <path d="M44.7126706,22.4 L35.131384,22.4 C34.5426589,22.4 34.0668382,22.877875 34.0668382,23.466625 L34.0668382,27.73325 L36.1960546,27.73325 L36.1960546,24.53325 L43.6481248,24.53325 L43.6481248,27.73325 L45.7773411,27.73325 L45.7773411,23.466625 C45.7772164,22.877875 45.3013957,22.4 44.7126706,22.4 Z" id="Shape"></path>
                <path d="M44.7126706,18.133375 L35.131384,18.133375 C32.1963665,18.133375 29.8084055,20.525875 29.8084055,23.46675 L29.8084055,27.733375 L31.9376218,27.733375 L31.9376218,23.46675 C31.9376218,21.7025 33.3705731,20.26675 35.131384,20.26675 L44.7126706,20.26675 C46.4734815,20.26675 47.9064327,21.7025 47.9064327,23.46675 L47.9064327,27.733375 L50.0356491,27.733375 L50.0356491,23.46675 C50.0356491,20.525875 47.6476881,18.133375 44.7126706,18.133375 Z" id="Shape"></path>
                <path d="M44.5135595,38.846875 L39.1905809,31.38025 C38.7913606,30.819125 37.8576842,30.819125 37.4584639,31.38025 L32.1354854,38.846875 C31.9034386,39.17225 31.872499,39.598875 32.0545185,39.955125 C32.2376608,40.310375 32.6028226,40.53325 33.0020429,40.53325 L43.6478752,40.53325 C44.0470955,40.53325 44.4122573,40.310375 44.5942768,39.955125 C44.7765458,39.599 44.745731,39.17225 44.5135595,38.846875 Z M35.0707524,38.4 L38.3251462,33.83575 L41.5785419,38.4 L35.0707524,38.4 Z" id="Shape"></path>
                <path d="M54.8932865,41.94875 C51.544078,40.855375 48.0842105,42.24 47.1749864,45.0325 C46.7193762,46.429875 46.9567875,47.9445 47.8435556,49.299125 C48.6814191,50.579125 50.013193,51.567875 51.5919844,52.08525 C52.3702144,52.339125 53.1536842,52.459625 53.9107057,52.459625 C56.4093255,52.459625 58.6130214,51.1455 59.3124055,49.0015 C60.2226277,46.207 58.2403743,43.04325 54.8932865,41.94875 Z M57.2864873,48.34025 C56.7414269,50.017 54.4813411,50.786125 52.2520702,50.057625 C51.1300117,49.689625 50.1963353,49.004875 49.6225809,48.129125 C49.097731,47.327 48.9465263,46.463 49.1967875,45.695 C49.1967875,45.695 49.1967875,45.695 49.1979103,45.695 C49.6034932,44.448125 50.9577232,43.7035 52.5417544,43.7035 C53.0879376,43.7035 53.660694,43.791 54.2302066,43.977625 C56.4614737,44.70825 57.8315478,46.6645 57.2864873,48.34025 Z" id="Shape"></path>
                <path d="M20.7594542,56.533375 C18.7048421,56.533375 17.0333567,58.208 17.0333567,60.26675 C17.0333567,62.3255 18.7048421,64 20.7594542,64 C22.8140663,64 24.4855517,62.325375 24.4855517,60.266625 C24.4855517,58.207875 22.8140663,56.533375 20.7594542,56.533375 Z M20.7594542,61.866625 C19.8790487,61.866625 19.1625731,61.14875 19.1625731,60.266625 C19.1625731,59.3845 19.8790487,58.666625 20.7594542,58.666625 C21.6398596,58.666625 22.3563353,59.3845 22.3563353,60.266625 C22.3563353,61.14875 21.6398596,61.866625 20.7594542,61.866625 Z" id="Shape"></path>
                <path d="M59.0846004,56.533375 C57.0299883,56.533375 55.3585029,58.208 55.3585029,60.26675 C55.3585029,62.3255 57.0299883,64 59.0846004,64 C61.1392125,64 62.8106979,62.325375 62.8106979,60.266625 C62.8106979,58.207875 61.1392125,56.533375 59.0846004,56.533375 Z M59.0846004,61.866625 C58.2041949,61.866625 57.4877193,61.14875 57.4877193,60.266625 C57.4877193,59.3845 58.2041949,58.666625 59.0846004,58.666625 C59.9650058,58.666625 60.6814815,59.3845 60.6814815,60.266625 C60.6814815,61.14875 59.9650058,61.866625 59.0846004,61.866625 Z" id="Shape"></path>
                <rect id="Rectangle-path" x="25.5500975" y="49.066625" width="2.12921637" height="8.533375"></rect>
                <path d="M26.6146433,26.666625 L22.3563353,26.666625 C21.7687329,26.666625 21.2917895,27.1445 21.2917895,27.73325 L21.2917895,40.53325 L23.4210058,40.53325 L23.4210058,28.8 L25.5500975,28.8 L25.5500975,42.666625 L27.6793138,42.666625 L27.6793138,27.733375 C27.6793138,27.1445 27.2023704,26.666625 26.6146433,26.666625 Z" id="Shape"></path>
                <rect id="Rectangle-path" x="21.2917895" y="45.866625" width="2.12921637" height="11.733375"></rect>
                <rect id="Rectangle-path" x="56.4231735" y="50.133375" width="2.12921637" height="7.466625"></rect>
                <path d="M57.4877193,26.666625 L53.2294113,26.666625 C52.6406862,26.666625 52.1648655,27.1445 52.1648655,27.73325 L52.1648655,42.666625 L54.2939571,42.666625 L54.2939571,28.8 L56.4231735,28.8 L56.4231735,44.8 L58.5523899,44.8 L58.5523899,27.733375 C58.5522651,27.1445 58.0764444,26.666625 57.4877193,26.666625 Z" id="Shape"></path>
                <rect id="Rectangle-path" x="52.1647407" y="51.2" width="2.12921637" height="6.4"></rect>
                <path d="M30.3449825,43.877375 L17.5699337,36.41075 L16.4967797,38.255 L28.4095127,45.217125 L27.2405458,47.5585 L17.580538,41.7515 L16.4850526,43.580875 L27.130885,49.980875 C27.2990565,50.081125 27.4875634,50.133375 27.6791891,50.133375 C27.7792437,50.133375 27.8792982,50.1195 27.977232,50.09075 C28.2614269,50.0075 28.4988382,49.809125 28.6319532,49.5435 L30.7611696,45.276875 C31.0114308,44.773375 30.8304094,44.162125 30.3449825,43.877375 Z" id="Shape"></path>
            </g>
        </g>
    </g>
</svg>