<?xml version="1.0" encoding="UTF-8"?>
<svg width="64px" height="65px" viewBox="0 0 64 65" version="1.1" xmlns="http://www.w3.org/2000/svg" xmlns:xlink="http://www.w3.org/1999/xlink">
    <!-- Generator: Sketch 48.2 (47327) - http://www.bohemiancoding.com/sketch -->
    <title>about/take-off</title>
    <desc>Created with Sketch.</desc>
    <defs>
        <linearGradient x1="0%" y1="0%" x2="101.999998%" y2="100.999999%" id="linearGradient-1">
            <stop stop-color="#1A79D2" offset="0%"></stop>
            <stop stop-color="#6DBED7" offset="100%"></stop>
        </linearGradient>
    </defs>
    <g id="Symbols" stroke="none" stroke-width="1" fill="none" fill-rule="evenodd">
        <g id="about/take-off" fill="url(#linearGradient-1)" fill-rule="nonzero">
            <g id="take-off" transform="translate(0.000000, 1.000000)">
                <path d="M61.1530604,18.4775361 C56.7169747,16.8082963 51.865575,16.8998674 47.5199376,18.7266745 L13.9513762,31.8179805 L5.88712671,26.7781988 C5.64223002,26.6248733 5.34630799,26.5780897 5.06523197,26.6483275 L0.806923977,27.7128733 C0.480062378,27.7948382 0.21071345,28.026885 0.0819649123,28.3377778 C-0.0479064327,28.6496686 -0.0213333333,29.0031033 0.152202729,29.2926628 L6.5397271,39.9384951 C6.73135283,40.2578713 7.07842495,40.4548616 7.45207018,40.4548616 L25.5500975,40.4548616 C25.6853333,40.4548616 25.8194464,40.4292865 25.945076,40.3813801 L61.2798129,26.2755556 C61.2840546,26.2734347 61.2894191,26.2713138 61.2947836,26.269193 C62.8831813,25.6069864 63.8976998,24.0666199 63.8763665,22.3451072 C63.8539103,20.6280858 62.7574269,19.0737466 61.1530604,18.4775361 Z M60.4813723,24.2987914 L25.3457466,38.32577 L8.05576608,38.32577 L2.71794152,29.4278986 L5.14307992,28.8222066 L13.2765692,33.9045302 C13.5618869,34.082308 13.9141988,34.1163665 14.2272125,33.9939805 L48.319501,20.6973255 C52.1839532,19.0738713 56.4753216,18.9907836 60.406768,20.4695205 C61.1967251,20.7633216 61.735423,21.5267057 61.7460273,22.369809 C61.7567563,23.2150331 61.2606004,23.970807 60.4813723,24.2987914 Z" id="Shape"></path>
                <path d="M40.9536374,23.2596959 L42.0831813,21.4540975 L8.01634308,0.162432749 C7.74699415,-0.00474074074 7.41701365,-0.0451617934 7.1157271,0.0548927875 L0.728202729,2.18410916 C0.367282651,2.30549708 0.0979337232,2.60890448 0.0213333333,2.9814269 C-0.0542690058,3.35407407 0.0746042885,3.73944639 0.35879922,3.9917037 L28.0381131,28.4772554 L29.449731,26.8824951 L3.15334113,3.62017934 L7.3137154,2.23413645 L40.9536374,23.2596959 Z" id="Shape"></path>
                <rect id="Rectangle-path" transform="translate(56.955672, 20.214926) rotate(-21.487542) translate(-56.955672, -20.214926) " x="54.0951254" y="19.1508757" width="5.72109301" height="2.12809989"></rect>
                <polygon id="Shape" points="33.7580663 28.4037739 34.5459025 30.3839064 36.515306 29.6067992 35.7381988 27.6159376"></polygon>
                <polygon id="Shape" points="37.7183314 26.8388304 38.4954386 28.818963 40.4543626 28.0418558 39.6878596 26.0617232"></polygon>
                <rect id="Rectangle-path" transform="translate(31.189197, 30.559944) rotate(-111.425834) translate(-31.189197, -30.559944) " x="30.1255767" y="29.4963237" width="2.12724038" height="2.12724038"></rect>
                <polygon id="Shape" points="51.5579259 21.3881014 49.5777934 22.1653333 50.3550253 24.1454659 52.3351579 23.4215049"></polygon>
                <polygon id="Shape" points="45.6175283 23.7302768 46.4053645 25.7104094 48.3854971 24.9331774 47.5976608 22.9530448"></polygon>
                <polygon id="Shape" points="41.6679922 25.2844912 42.4450994 27.2646238 44.425232 26.4661832 43.6481248 24.4860507"></polygon>
                <path d="M59.6169357,45.7778402 L55.3586277,45.7778402 C54.7699025,45.7778402 54.2940819,46.2536608 54.2940819,46.842386 L54.2940819,62.8111969 C54.2940819,63.399922 54.7699025,63.8757427 55.3586277,63.8757427 L59.6169357,63.8757427 C60.2056608,63.8757427 60.6814815,63.399922 60.6814815,62.8111969 L60.6814815,46.842386 C60.6814815,46.2537856 60.2056608,45.7778402 59.6169357,45.7778402 Z M58.5522651,61.7466511 L56.4230487,61.7466511 L56.4230487,47.9070565 L58.5522651,47.9070565 L58.5522651,61.7466511 Z" id="Shape"></path>
                <path d="M63.6335906,40.8446004 C63.4313606,40.5987057 63.1300741,40.4549864 62.8106979,40.4549864 L52.1648655,40.4549864 C51.8454893,40.4549864 51.5442027,40.5987057 51.3419727,40.8446004 C51.1407407,41.0904951 51.0587758,41.4152359 51.121653,41.7282495 L52.1861988,47.0512281 C52.2852554,47.5483821 52.721653,47.9071813 53.2295361,47.9071813 L61.7462768,47.9071813 C62.2540351,47.9071813 62.6905575,47.5483821 62.789614,47.0512281 L63.8541598,41.7282495 C63.9167875,41.4152359 63.8348226,41.0904951 63.6335906,40.8446004 Z M60.8731072,45.7778402 L54.1012086,45.7778402 L53.4634542,42.584078 L61.5117349,42.584078 L60.8731072,45.7778402 Z" id="Shape"></path>
                <path d="M59.6169357,36.1965536 L55.3586277,36.1965536 C54.7699025,36.1965536 54.2940819,36.6723743 54.2940819,37.2610994 L54.2940819,41.5194074 C54.2940819,42.1081326 54.7699025,42.5839532 55.3586277,42.5839532 L59.6169357,42.5839532 C60.2056608,42.5839532 60.6814815,42.1081326 60.6814815,41.5194074 L60.6814815,37.2610994 C60.6814815,36.672499 60.2056608,36.1965536 59.6169357,36.1965536 Z M58.5522651,40.4548616 L56.4230487,40.4548616 L56.4230487,38.3256452 L58.5522651,38.3256452 L58.5522651,40.4548616 Z" id="Shape"></path>
                <rect id="Rectangle-path" x="56.4231735" y="33.0027914" width="2.12921637" height="4.25830799"></rect>
                <rect id="Rectangle-path" x="0" y="61.7466511" width="63.8752437" height="2.12921637"></rect>
                <path d="M51.1001949,53.2299103 L21.2917895,53.2299103 C20.7041871,53.2299103 20.2272437,53.705731 20.2272437,54.2944561 L20.2272437,62.8111969 C20.2272437,63.399922 20.7041871,63.8757427 21.2917895,63.8757427 L51.1001949,63.8757427 C51.6889201,63.8757427 52.1647407,63.399922 52.1647407,62.8111969 L52.1647407,54.2944561 C52.1647407,53.7058558 51.6889201,53.2299103 51.1001949,53.2299103 Z M50.0356491,61.7466511 L22.3563353,61.7466511 L22.3563353,55.3591267 L50.0356491,55.3591267 L50.0356491,61.7466511 Z" id="Shape"></path>
                <rect id="Rectangle-path" x="45.7772164" y="57.4883431" width="2.12921637" height="2.12921637"></rect>
                <rect id="Rectangle-path" x="41.5189084" y="57.4883431" width="2.12921637" height="2.12921637"></rect>
                <rect id="Rectangle-path" x="37.2606004" y="57.4883431" width="2.12921637" height="2.12921637"></rect>
                <rect id="Rectangle-path" x="33.0021676" y="57.4883431" width="2.12921637" height="2.12921637"></rect>
                <rect id="Rectangle-path" x="28.7438596" y="57.4883431" width="2.12921637" height="2.12921637"></rect>
                <rect id="Rectangle-path" x="24.4855517" y="57.4883431" width="2.12921637" height="2.12921637"></rect>
                <path d="M21.2917895,56.4236725 L8.51674074,56.4236725 C7.9291384,56.4236725 7.45219493,56.8994932 7.45219493,57.4882183 L7.45219493,62.8111969 C7.45219493,63.399922 7.9291384,63.8757427 8.51674074,63.8757427 L21.2917895,63.8757427 C21.8793918,63.8757427 22.3563353,63.399922 22.3563353,62.8111969 L22.3563353,57.4882183 C22.3563353,56.8996179 21.8793918,56.4236725 21.2917895,56.4236725 Z M20.2271189,61.7466511 L9.58128655,61.7466511 L9.58128655,58.5528889 L20.2271189,58.5528889 L20.2271189,61.7466511 Z" id="Shape"></path>
            </g>
        </g>
    </g>
</svg>