<?xml version="1.0" encoding="UTF-8"?>
<svg width="64px" height="65px" viewBox="0 0 64 65" version="1.1" xmlns="http://www.w3.org/2000/svg" xmlns:xlink="http://www.w3.org/1999/xlink">
    <!-- Generator: Sketch 48.2 (47327) - http://www.bohemiancoding.com/sketch -->
    <title>about/wallet</title>
    <desc>Created with Sketch.</desc>
    <defs>
        <linearGradient x1="0%" y1="0%" x2="101.999998%" y2="100.999999%" id="linearGradient-1">
            <stop stop-color="#1A79D2" offset="0%"></stop>
            <stop stop-color="#6DBED7" offset="100%"></stop>
        </linearGradient>
    </defs>
    <g id="Symbols" stroke="none" stroke-width="1" fill="none" fill-rule="evenodd">
        <g id="about/wallet" fill="url(#linearGradient-1)" fill-rule="nonzero">
            <path d="M57.596,51.1026901 L57.596,61.7467758 L6.93775,61.7467758 C4.29175,61.7467758 2.1385,59.5977232 2.1385,56.9568811 L2.1385,20.2348538 L0.0055,20.2348538 L0.0055,56.9570058 C0.0055,60.7718051 3.115375,63.8756179 6.937625,63.8756179 L58.662375,63.8756179 C59.252125,63.8756179 59.728875,63.3997973 59.728875,62.8111969 L59.728875,51.1026901 L57.596,51.1026901 Z" id="Shape"></path>
            <path d="M58.662375,24.4924133 L6.93775,24.4924133 C4.29175,24.4924133 2.1385,22.3433606 2.1385,19.7025185 C2.1385,17.0616764 4.29175,14.9126238 6.93775,14.9126238 L25.60125,14.9126238 L25.60125,12.7837817 L6.93775,12.7837817 C3.1155,12.7837817 0.005625,15.8875945 0.005625,19.7023938 C0.005625,23.517193 3.1155,26.6210058 6.93775,26.6210058 L57.596,26.6210058 L57.596,36.2006706 L59.729,36.2006706 L59.729,25.5565848 C59.728875,24.9693567 59.25225,24.4924133 58.662375,24.4924133 Z" id="Shape"></path>
            <path d="M62.928375,12.7839064 L54.3965,12.7839064 L54.3965,14.9127485 L61.861875,14.9127485 L61.861875,50.038269 L57.595875,50.038269 L57.595875,52.1671111 L62.928375,52.1671111 C63.518125,52.1671111 63.994875,51.6912904 63.994875,51.1026901 L63.994875,13.8483275 C63.994875,13.2608499 63.518125,12.7839064 62.928375,12.7839064 Z" id="Shape"></path>
            <path d="M42.665125,39.3941832 C40.3125,39.3941832 38.399125,41.3037037 38.399125,43.6518674 C38.399125,46.0000312 40.312375,47.9095517 42.665125,47.9095517 C45.01775,47.9095517 46.931125,46.0000312 46.931125,43.6518674 C46.931125,41.3037037 45.01775,39.3941832 42.665125,39.3941832 Z M42.665125,45.7807096 C41.48875,45.7807096 40.532125,44.8259493 40.532125,43.6518674 C40.532125,42.4777856 41.48875,41.5230253 42.665125,41.5230253 C43.8415,41.5230253 44.798125,42.4777856 44.798125,43.6518674 C44.798125,44.8259493 43.841375,45.7807096 42.665125,45.7807096 Z" id="Shape"></path>
            <path d="M62.928375,35.1366238 L42.665125,35.1366238 C37.960875,35.1366238 34.13325,38.9567875 34.13325,43.6518674 C34.13325,48.3469474 37.960875,52.1671111 42.665125,52.1671111 L62.928375,52.1671111 C63.518125,52.1671111 63.994875,51.6912904 63.994875,51.1026901 L63.994875,36.2009201 C63.994875,35.6123197 63.518125,35.1366238 62.928375,35.1366238 Z M61.861875,50.038269 L42.665125,50.038269 C39.136125,50.038269 36.26625,47.1739883 36.26625,43.6518674 C36.26625,40.1297466 39.136125,37.2654659 42.665125,37.2654659 L61.861875,37.2654659 L61.861875,50.038269 Z" id="Shape"></path>
            <path d="M61.77975,19.6589786 L43.940625,1.57891618 C43.933125,1.57043275 43.924625,1.56294737 43.917125,1.55446394 C41.836375,-0.520109162 38.4535,-0.515867446 36.38125,1.55334113 L12.759625,24.8000624 L14.257,26.3157271 L37.884,3.06364133 C39.1275,1.82468616 41.146375,1.81507992 42.394125,3.04654971 C42.398375,3.05079142 42.402625,3.05403509 42.405875,3.0582768 L60.263125,21.1564288 C61.499125,22.3975049 61.499125,24.4166862 60.267375,25.6546433 L57.9105,27.9963197 L59.41425,29.5046238 L61.7755,27.1587057 C63.837,25.0906199 63.837,21.7239454 61.77975,19.6589786 Z" id="Shape"></path>
            <path d="M51.900875,20.2358519 C48.960625,20.2358519 46.568375,22.6233138 46.568375,25.5579571 L48.701375,25.5579571 C48.701375,23.7973957 50.136875,22.364694 51.900875,22.364694 C53.664875,22.364694 55.100375,23.7973957 55.100375,25.5579571 L57.233375,25.5579571 C57.233375,22.6233138 54.84125,20.2358519 51.900875,20.2358519 Z" id="Shape"></path>
            <rect id="Rectangle-path" transform="translate(35.369479, 13.322220) rotate(-45.000000) translate(-35.369479, -13.322220) " x="28.5824812" y="12.257809" width="13.5739948" height="2.12882169"></rect>
            <rect id="Rectangle-path" transform="translate(40.702476, 14.381955) rotate(-45.000000) translate(-40.702476, -14.381955) " x="36.9325117" y="13.3175441" width="7.53992769" height="2.12882169"></rect>
            <path d="M8.00425,17.0427135 C4.182,17.0427135 1.072125,20.1465263 1.072125,23.9613255 L3.205,23.9613255 C3.205,21.3204834 5.35825,19.1714308 8.00425,19.1714308 L21.335375,19.1714308 L21.335375,17.0425887 L8.00425,17.0425887 L8.00425,17.0427135 Z" id="Shape"></path>
            <path d="M2.139625,25.5612008 L0.006625,25.5548382 C0.0055,25.9785107 0.042875,26.4031813 0.119625,26.8161248 L2.217375,26.4286316 C2.165125,26.1444366 2.1385,25.8527563 2.139625,25.5612008 Z" id="Shape"></path>
            <rect id="Rectangle-path" x="14.294375" y="29.8145185" width="2.165" height="2.12884211"></rect>
            <rect id="Rectangle-path" x="22.95525" y="29.8145185" width="2.165" height="2.12884211"></rect>
            <rect id="Rectangle-path" x="18.625375" y="29.8145185" width="2.165" height="2.12884211"></rect>
            <path d="M2.86375,27.9379337 L1.17975,29.2451306 C1.7055,29.9189396 2.34325,30.4862066 3.076,30.9300897 L4.183,29.1110175 C3.673125,28.8022456 3.2295,28.4073918 2.86375,27.9379337 Z" id="Shape"></path>
            <rect id="Rectangle-path" x="9.9655" y="29.8145185" width="2.165" height="2.12884211"></rect>
            <path d="M5.833875,29.7379181 L5.44675,31.8315789 C5.862625,31.9081793 6.287125,31.9476023 6.708375,31.9476023 C6.711625,31.9476023 6.715875,31.9476023 6.719,31.9466043 L7.800375,31.9433606 L7.800375,29.8145185 L6.716875,29.8177622 C6.419375,29.7931852 6.124,29.7910643 5.833875,29.7379181 Z" id="Shape"></path>
            <rect id="Rectangle-path" x="35.945125" y="29.8145185" width="2.165" height="2.12884211"></rect>
            <rect id="Rectangle-path" x="27.28525" y="29.8145185" width="2.165" height="2.12884211"></rect>
            <rect id="Rectangle-path" x="48.935" y="29.8145185" width="2.163875" height="2.12884211"></rect>
            <rect id="Rectangle-path" x="53.264875" y="29.8145185" width="2.165" height="2.12884211"></rect>
            <rect id="Rectangle-path" x="44.605" y="29.8145185" width="2.165" height="2.12884211"></rect>
            <rect id="Rectangle-path" x="40.275125" y="29.8145185" width="2.163875" height="2.12884211"></rect>
            <rect id="Rectangle-path" x="31.61525" y="29.8145185" width="2.163875" height="2.12884211"></rect>
            <rect id="Rectangle-path" x="57.60125" y="29.8145185" width="1.0665" height="2.12884211"></rect>
            <path d="M2.139625,52.1703548 L0.006625,52.1639922 C0.0055,52.5886628 0.042875,53.0133333 0.119625,53.4264016 L2.217375,53.0367875 C2.165125,52.7547135 2.1385,52.4620351 2.139625,52.1703548 Z" id="Shape"></path>
            <rect id="Rectangle-path" x="27.28525" y="56.4247953" width="2.165" height="2.12884211"></rect>
            <rect id="Rectangle-path" x="22.95525" y="56.4247953" width="2.165" height="2.12884211"></rect>
            <rect id="Rectangle-path" x="18.625375" y="56.4247953" width="2.165" height="2.12884211"></rect>
            <path d="M2.86375,54.5472125 L1.17975,55.8552827 C1.7055,56.5300897 2.34325,57.0963587 3.076,57.5402417 L4.183,55.7211696 C3.673125,55.4125224 3.2295,55.0165458 2.86375,54.5472125 Z" id="Shape"></path>
            <path d="M5.833875,56.3481949 L5.448875,58.4418558 C5.866875,58.5184561 6.2935,58.5568811 6.716875,58.5568811 L7.800375,58.5536374 L7.800375,56.4247953 L6.716875,56.428039 C6.4215,56.4279142 6.125,56.4013411 5.833875,56.3481949 Z" id="Shape"></path>
            <rect id="Rectangle-path" x="9.9655" y="56.4247953" width="2.165" height="2.12884211"></rect>
            <rect id="Rectangle-path" x="14.295375" y="56.4247953" width="2.165" height="2.12884211"></rect>
            <rect id="Rectangle-path" x="48.935" y="56.4247953" width="2.163875" height="2.12884211"></rect>
            <rect id="Rectangle-path" x="44.605" y="56.4247953" width="2.165" height="2.12884211"></rect>
            <rect id="Rectangle-path" x="53.264875" y="56.4247953" width="2.165" height="2.12884211"></rect>
            <rect id="Rectangle-path" x="31.61525" y="56.4247953" width="2.165" height="2.12884211"></rect>
            <rect id="Rectangle-path" x="35.945125" y="56.4247953" width="2.165" height="2.12884211"></rect>
            <rect id="Rectangle-path" x="40.275125" y="56.4247953" width="2.163875" height="2.12884211"></rect>
            <rect id="Rectangle-path" x="57.60125" y="56.4247953" width="1.0665" height="2.12884211"></rect>
            <rect id="Rectangle-path" x="58.66775" y="17.0415906" width="4.266" height="2.12884211"></rect>
            <rect id="Rectangle-path" transform="translate(45.865282, 18.104629) rotate(-45.000000) translate(-45.865282, -18.104629) " x="42.8487488" y="17.0402181" width="6.03306714" height="2.12882169"></rect>
            <rect id="Rectangle-path" transform="translate(39.995165, 23.960617) rotate(-45.000000) translate(-39.995165, -23.960617) " x="37.7326238" y="22.8962062" width="4.5250816" height="2.12882169"></rect>
        </g>
    </g>
</svg>